<svg width="80" height="116" viewBox="0 0 80 116" fill="none" xmlns="http://www.w3.org/2000/svg">
    <g filter="url(#a)">
        <rect x="2" y="2" width="71.321" height="108" rx="8"/>
    </g>
    <path d="M49.659 24.15h5.04v-1.14H52.97V15.32h-1.044c-.504.312-1.092.516-1.92.672v.876h1.584v6.144h-1.932v1.14zm10.167-7.091h2.292v-.996h-2.292v-1.608H58.59v1.608h-2.328v.996h2.328v.624c0 1.776-1.008 3.6-2.664 4.392l.684.948c1.236-.576 2.136-1.764 2.616-3.168.444 1.308 1.308 2.412 2.472 2.976l.684-.948c-1.608-.78-2.556-2.544-2.556-4.2v-.624zm6.336 1.524H64.47v-4.356h-1.236v10.848h1.236v-5.472h1.692v-1.02zM16.116 90.336h-2.592v-1.224h-1.236v1.224H9.672v.996h6.444v-.996zM11.472 93.9c0-.672.588-1.08 1.44-1.08s1.428.408 1.428 1.08c0 .66-.576 1.068-1.428 1.068s-1.44-.408-1.44-1.068zm2.052 1.968c1.2-.192 1.98-.936 1.98-1.968 0-1.224-1.056-2.028-2.592-2.028-1.548 0-2.604.804-2.604 2.028 0 1.032.78 1.764 1.98 1.968v1.056c-1.008.036-1.98.036-2.808.036l.168 1.02c1.86 0 4.368-.024 6.684-.432l-.096-.912c-.864.132-1.788.192-2.712.24v-1.008zm6.108-2.256h-1.548v-4.536h-1.236v10.848h1.236v-5.292h1.548v-1.02zm8.687-4.536v10.872h1.248V89.076H28.32zm-4.524.804c-1.608 0-2.784 1.488-2.784 3.816 0 2.352 1.176 3.828 2.784 3.828 1.62 0 2.796-1.476 2.796-3.828 0-2.328-1.176-3.816-2.796-3.816zm0 1.116c.948 0 1.608 1.02 1.608 2.7 0 1.704-.66 2.724-1.608 2.724-.936 0-1.596-1.02-1.596-2.724 0-1.68.66-2.7 1.596-2.7zm11.687.192h2.292v-1.02h-5.892v1.02h2.364v1.044c0 1.8-1.104 3.852-2.76 4.644l.708.984c1.248-.612 2.208-1.908 2.688-3.42.492 1.368 1.416 2.568 2.628 3.144l.684-.972c-1.644-.78-2.712-2.7-2.712-4.38v-1.044zm6.288 2.172h-1.692v-4.272h-1.236v10.836h1.236V94.38h1.692v-1.02z" fill="#fff"/>
    <g opacity=".5" clip-path="url(#b)" fill="#fff" fill-opacity=".25">
        <path opacity=".5" d="M60.728 50.433a20.418 20.418 0 0 0-5.44-7.977 20.325 20.325 0 0 0-8.485-4.572 20.28 20.28 0 0 0-9.631-.143 20.318 20.318 0 0 0-8.617 4.317 14.605 14.605 0 0 0-3.807 5.012 14.65 14.65 0 0 0-1.348 6.154c-.002.529.027 1.057.084 1.582a10.79 10.79 0 0 1 .918-5.224 10.757 10.757 0 0 1 2.69-3.654 17.955 17.955 0 0 1 11.954-4.55c5.092 0 9.975 2.03 13.576 5.642a19.298 19.298 0 0 1 5.623 13.622 21.311 21.311 0 0 1-3.187 11.2 21.211 21.211 0 0 1-8.59 7.833 23.35 23.35 0 0 0 13.036-11.732 23.475 23.475 0 0 0 1.224-17.527v.017z"/>
        <path d="M28.555 42.058a20.32 20.32 0 0 1 8.619-4.322 20.278 20.278 0 0 1 9.634.143c3.154.82 6.065 2.389 8.489 4.574a20.418 20.418 0 0 1 5.44 7.98c-1-3.011-2.602-5.786-4.706-8.156A23.298 23.298 0 0 0 48.5 36.65a23.228 23.228 0 0 0-26.254 4.573 23.378 23.378 0 0 0-5.202 7.846 23.443 23.443 0 0 0 .405 18.456 19.858 19.858 0 0 0 7.322 8.429 19.76 19.76 0 0 0 10.697 3.13c3.801 0 7.516-1.14 10.665-3.276a19.1 19.1 0 0 0 7.009-8.706c.528-1.334.798-2.756.797-4.191 0-1.797-.58-3.545-1.655-4.982a8.265 8.265 0 0 0-4.305-2.986 8.239 8.239 0 0 0-5.229.206 8.271 8.271 0 0 0-4.057 3.316 8.281 8.281 0 0 1-3.1 2.881 8.247 8.247 0 0 1-8.165-.226 8.286 8.286 0 0 1-2.936-3.048 8.152 8.152 0 0 1-.994-3.265 14.216 14.216 0 0 1-.085-1.582 14.648 14.648 0 0 1 1.343-6.152 14.603 14.603 0 0 1 3.8-5.014zM16.588 83.105a.822.822 0 0 1-.503.761.814.814 0 0 1-1.117-.598.823.823 0 0 1 .807-.98.812.812 0 0 1 .813.817zM12.917 80.3l-3.06-.088-.637-.757 3.275.11.498-3.27.653.783-.468 3.016 1.754-1.472.527.634-3.764 3.147-.527-.63 1.749-1.472z"/>
        <path d="M12.162 74.777a1.834 1.834 0 0 1 .266 1.404 1.858 1.858 0 0 1-1.486 1.445 1.845 1.845 0 0 1-.727-.015 1.901 1.901 0 0 1-1.166-.824 1.913 1.913 0 0 1-.267-1.405 1.792 1.792 0 0 1 .805-1.176 1.754 1.754 0 0 1 1.4-.254 1.803 1.803 0 0 1 1.175.825zm-.56.36a.976.976 0 0 0-.687-.449 1.207 1.207 0 0 0-.881.2 1.23 1.23 0 0 0-.548.722 1.015 1.015 0 0 0 .122.82.997.997 0 0 0 .691.445c.31.05.627-.02.886-.199a1.2 1.2 0 0 0 .543-.727 1.009 1.009 0 0 0-.126-.812zM10.81 72.671l-3.15 1.62-.34-.681.471-.237a1.312 1.312 0 0 1-.556-.199 1.365 1.365 0 0 1-.48-.575l-.026-.05.637-.326.038.08a1.061 1.061 0 0 0 .628.571c.326.064.664.004.948-.17l1.45-.752.38.719zM8.2 70.484a.993.993 0 0 0 .392-.473c.113-.31.1-.651-.033-.952a1.651 1.651 0 0 0-.797-.846l.464-.423c.431.225.766.601.94 1.057.213.49.23 1.042.05 1.544a1.735 1.735 0 0 1-1.041 1.007 1.882 1.882 0 0 1-1.429 0 1.715 1.715 0 0 1-.952-1.011 1.717 1.717 0 0 1 0-1.4 1.785 1.785 0 0 1 1.024-.935 2.05 2.05 0 0 1 .375-.11L8.2 70.484zm-.577.241-.708-1.835a.967.967 0 0 0-.485 1.256.91.91 0 0 0 .544.554c.208.076.434.086.649.03v-.005zM5.793 65.887a45.759 45.759 0 0 1-.202-.812.577.577 0 0 0-.421.385 1.485 1.485 0 0 0 0 .8c.09.338.245.656.46.934l-.561.347a3.122 3.122 0 0 1-.54-1.113 2.291 2.291 0 0 1 0-1.408 1.238 1.238 0 0 1 .94-.723l2.107-.525.182.745-.375.093c.202.105.38.254.518.435.13.19.226.4.282.622.103.357.073.738-.084 1.074a1.027 1.027 0 0 1-.708.58 1.054 1.054 0 0 1-.986-.262 2.236 2.236 0 0 1-.612-1.172zm1.733-.203a1.368 1.368 0 0 0-.295-.563 1.186 1.186 0 0 0-.447-.342l-.582.144.169.698c.046.288.17.559.358.782a.501.501 0 0 0 .46.131.463.463 0 0 0 .324-.283.912.912 0 0 0 .009-.567h.004zM4.554 56.764a2.34 2.34 0 0 1 1.779.634A2.487 2.487 0 0 1 7.1 59.2l.06 1.637-4.907.186-.063-1.637a2.486 2.486 0 0 1 .628-1.857 2.386 2.386 0 0 1 1.736-.765zm.03.846a1.707 1.707 0 0 0-1.265.541 1.842 1.842 0 0 0-.421 1.354l.025.689 3.537-.135-.026-.69a1.837 1.837 0 0 0-.527-1.32 1.713 1.713 0 0 0-1.323-.46v.02zM2.548 54.696a.48.48 0 0 1 .341.173.508.508 0 0 1-.05.724.484.484 0 0 1-.363.126.5.5 0 0 1-.35-.173.508.508 0 0 1-.126-.372.5.5 0 0 1 .177-.339.501.501 0 0 1 .37-.14zm4.556 1.222-3.52-.237.056-.812 3.52.241-.056.808zM6.535 54.412l-.421-.579c.193-.096.366-.228.51-.39a.962.962 0 0 0 .227-.502.849.849 0 0 0-.042-.47.338.338 0 0 0-.261-.228.325.325 0 0 0-.308.135 2.152 2.152 0 0 0-.253.398c-.088.181-.19.368-.295.558a1.356 1.356 0 0 1-.46.533.84.84 0 0 1-.953-.063.91.91 0 0 1-.273-.339 1.743 1.743 0 0 1 .262-1.92.98.98 0 0 1 .421-.245l.396.558c-.11.045-.213.108-.303.186a.885.885 0 0 0-.287.55.64.64 0 0 0 .047.372.305.305 0 0 0 .219.19.303.303 0 0 0 .278-.13c.114-.144.207-.302.278-.47l.127-.258c.114-.281.291-.532.518-.732a.876.876 0 0 1 1.085.012c.12.094.215.216.277.356.174.343.23.735.156 1.112a1.784 1.784 0 0 1-.397.944c-.148.18-.336.325-.548.422zM6.514 50.06a.95.95 0 0 0 .595-.152c.271-.183.462-.465.53-.786.098-.396.05-.813-.134-1.176l.632-.076c.222.447.269.962.13 1.442a2.086 2.086 0 0 1-.868 1.269 1.684 1.684 0 0 1-1.428.194 1.83 1.83 0 0 1-1.164-.846 1.696 1.696 0 0 1-.168-1.391 1.694 1.694 0 0 1 .843-1.12 1.783 1.783 0 0 1 1.378-.153c.126.033.249.079.367.135l-.713 2.66zm-.61-.148.51-1.898a.959.959 0 0 0-.688.114.946.946 0 0 0-.455.605.942.942 0 0 0 .101.774c.131.186.317.328.531.406zM7.26 44.922l.317-.774a.563.563 0 0 0-.578.055 1.45 1.45 0 0 0-.45.655v.021a2.575 2.575 0 0 0-.178 1.028l-.658-.05c-.004-.423.076-.841.237-1.231.155-.459.45-.857.843-1.138a1.236 1.236 0 0 1 1.184-.03l2.032.804-.291.71-.359-.148a1.6 1.6 0 0 1 .114.643c-.003.23-.049.456-.135.669a1.53 1.53 0 0 1-.695.82 1.045 1.045 0 0 1-.915.055 1.066 1.066 0 0 1-.67-.783 2.223 2.223 0 0 1 .202-1.306zm1.522.846c.078-.2.11-.413.093-.627a1.14 1.14 0 0 0-.165-.54l-.552-.23-.257.677a1.629 1.629 0 0 0-.173.846.513.513 0 0 0 .295.381.45.45 0 0 0 .422-.038.892.892 0 0 0 .337-.457v-.013zM9.65 43.47l-.206-.693c.216-.028.425-.099.615-.207a.972.972 0 0 0 .384-.39.848.848 0 0 0 .122-.456.327.327 0 0 0-.169-.3.308.308 0 0 0-.333 0c-.134.08-.26.176-.375.283-.146.138-.302.28-.468.423-.17.167-.383.286-.615.343a.84.84 0 0 1-.56-.09.907.907 0 0 1-.452-.714 1.739 1.739 0 0 1 .907-1.692.983.983 0 0 1 .467-.088l.199.672c-.12.003-.239.028-.35.072-.2.08-.364.23-.46.423a.657.657 0 0 0-.084.368.301.301 0 0 0 .143.25.286.286 0 0 0 .304-.026c.155-.094.297-.21.421-.343l.211-.198a1.93 1.93 0 0 1 .755-.474.842.842 0 0 1 .69.076.929.929 0 0 1 .46.74c.046.383-.037.77-.236 1.1-.157.306-.398.56-.695.732-.207.115-.438.18-.675.19zM11.13 39.398a.988.988 0 0 0 .61.064c.318-.079.593-.277.768-.555.23-.336.33-.745.283-1.15l.62.148c.05.497-.083.996-.376 1.4-.293.45-.745.77-1.265.897a1.7 1.7 0 0 1-1.407-.313 1.853 1.853 0 0 1-.776-1.184 1.698 1.698 0 0 1 .32-1.367 1.734 1.734 0 0 1 1.172-.76 1.796 1.796 0 0 1 1.345.337c.106.075.205.16.295.254l-1.59 2.23zm-.523-.35 1.134-1.608a.933.933 0 0 0-.683-.127.979.979 0 0 0-.794.78.987.987 0 0 0 .002.392c.053.218.172.414.341.562zM16.858 33.921a2.21 2.21 0 0 0 .678-1.332l.658.203a2.511 2.511 0 0 1-.843 1.632 2.552 2.552 0 0 1-4.295-1.932 2.47 2.47 0 0 1 .784-1.764 2.424 2.424 0 0 1 1.648-.761l.169.664c-.504.034-.98.245-1.345.596a1.605 1.605 0 0 0-.51 1.193c.005.495.201.97.548 1.323.326.363.78.584 1.264.618a1.612 1.612 0 0 0 1.244-.44zM20.373 31.958a1.83 1.83 0 0 1-1.387.335 1.862 1.862 0 0 1-1.206-.76 1.874 1.874 0 0 1-.32-1.393c.094-.484.37-.913.772-1.198a1.9 1.9 0 0 1 1.383-.329 1.853 1.853 0 0 1 1.208.759 1.87 1.87 0 0 1 .317 1.394 1.821 1.821 0 0 1-.767 1.192zm-.388-.54a.976.976 0 0 0 .422-.712 1.2 1.2 0 0 0-.236-.87 1.21 1.21 0 0 0-.746-.517.992.992 0 0 0-1.223.872c-.037.311.048.625.237.875.172.26.44.443.746.508a.984.984 0 0 0 .8-.157zM22.232 28.55l.843 1.569-.708.38-1.66-3.125.682-.364.22.423c.007-.194.066-.383.172-.546.1-.176.246-.322.422-.422a1.26 1.26 0 0 1 1.083-.098c.385.162.695.464.868.846l.982 1.823-.708.38-.868-1.649c-.12-.265-.31-.49-.552-.651a.635.635 0 0 0-.628.03.68.68 0 0 0-.278.296.881.881 0 0 0-.089.448c.028.232.102.457.22.66zM25.04 23.994l.42 1.058.709-.292.244.596-.7.296.688 1.667a.423.423 0 0 0 .244.279c.121.026.247.011.358-.042l.274-.114.245.596-.447.182a1.126 1.126 0 0 1-.864.08.998.998 0 0 1-.527-.6l-.716-1.739-.561.229-.244-.593.56-.232-.421-1.057.737-.314zM28.133 27.818l-1.083-3.384.72-.232.165.503a1.24 1.24 0 0 1 .278-.52c.17-.183.385-.318.624-.39h.055l.219.682-.08.025a1.053 1.053 0 0 0-.662.533c-.113.314-.106.66.021.968l.506 1.57-.763.245zM32.007 26.828a1.81 1.81 0 0 1-1.4-.25 1.74 1.74 0 0 1-.788-1.175 1.782 1.782 0 0 1 .262-1.409 1.837 1.837 0 0 1 1.18-.799 1.797 1.797 0 0 1 1.403.25 1.766 1.766 0 0 1 .81 1.18 1.779 1.779 0 0 1-.283 1.4 1.816 1.816 0 0 1-1.184.803zm-.135-.651a.988.988 0 0 0 .662-.486c.153-.268.199-.584.126-.884a1.219 1.219 0 0 0-.48-.783.953.953 0 0 0-.801-.178.985.985 0 0 0-.662.487 1.226 1.226 0 0 0-.13.896 1.202 1.202 0 0 0 .497.774.994.994 0 0 0 .788.174zM34.456 26.308l-.565-5.223.797-.085.547 5.228-.78.08zM39.767 23.77l.843.03a.576.576 0 0 0-.253-.525 1.488 1.488 0 0 0-.767-.198h-.026a2.665 2.665 0 0 0-1.024.186l-.177-.635c.394-.15.814-.22 1.235-.203.48-.013.951.125 1.349.394a1.238 1.238 0 0 1 .421 1.104l-.076 2.19-.737-.038v-.393a1.508 1.508 0 0 1-.565.334c-.215.075-.443.11-.67.102a1.506 1.506 0 0 1-1.008-.373 1.046 1.046 0 0 1-.366-.846 1.077 1.077 0 0 1 .522-.88c.398-.212.85-.3 1.299-.249zm-.253 1.73c.212.006.423-.039.615-.131.178-.072.335-.189.455-.338l.021-.601-.716-.025a1.596 1.596 0 0 0-.843.13.497.497 0 0 0-.209.64.448.448 0 0 0 .141.169c.157.109.345.164.536.156zM43.227 24.57l-.286 1.76-.789-.132.57-3.506.762.127-.076.46c.123-.149.283-.263.464-.33.191-.071.397-.092.599-.058a1.26 1.26 0 0 1 .919.583c.208.359.276.783.19 1.189l-.33 2.03-.792-.131.3-1.827c.062-.281.046-.574-.047-.846a.688.688 0 0 0-.915-.292.805.805 0 0 0-.341.3 1.741 1.741 0 0 0-.228.673zM48.534 23.846a1.415 1.415 0 0 1 .89.8l.627-2.043.767.228-1.513 5.033-.737-.224.126-.423a1.4 1.4 0 0 1-1.218.19 1.583 1.583 0 0 1-1.05-.909c-.2-.434-.23-.928-.084-1.383a1.92 1.92 0 0 1 .843-1.112 1.574 1.574 0 0 1 1.349-.157zm.421 2.31c.055-.138.099-.279.131-.423.05-.245.017-.5-.093-.724a.93.93 0 0 0-.586-.486.877.877 0 0 0-.796.114 1.32 1.32 0 0 0-.506.74 1.34 1.34 0 0 0 0 .893.901.901 0 0 0 .607.533.908.908 0 0 0 .754-.08c.226-.127.401-.327.498-.567h-.009zM56.618 27.653a1.442 1.442 0 0 1-.952.766 1.93 1.93 0 0 1-1.408-.259l-.675-.359-.843 1.586-.724-.385 2.314-4.348 1.399.749c.452.203.81.573.999 1.032a1.459 1.459 0 0 1-.11 1.218zm-.729-.39a.8.8 0 0 0 .05-.701 1.44 1.44 0 0 0-.699-.639l-.514-.27-.843 1.543.514.275c.271.18.596.26.919.229a.804.804 0 0 0 .573-.436zM55.577 31.011l1.973-2.93.628.422-.295.423c.183-.08.383-.113.581-.097.25.019.488.105.692.25l.046.033-.421.592-.072-.046a1.06 1.06 0 0 0-.843-.195c-.315.104-.58.323-.742.613l-.923 1.366-.624-.43zM58.903 31.645a.989.989 0 0 0-.11.605c.053.324.228.615.49.812.317.254.715.385 1.12.368l-.194.614a1.994 1.994 0 0 1-1.361-.487 2.078 2.078 0 0 1-.788-1.328 1.698 1.698 0 0 1 .421-1.383 1.896 1.896 0 0 1 1.265-.715c.482-.034.959.12 1.33.43.373.31.611.75.668 1.233a1.8 1.8 0 0 1-.443 1.315 1.913 1.913 0 0 1-.274.279l-2.124-1.743zm.421-.494 1.51 1.268a.987.987 0 0 0-.924-1.556c-.22.033-.424.134-.586.288zM61.9 35.38l2.718-1.269.574.6-3.402 1.515-.754-.795 1.686-3.333.573.6L61.9 35.38zM64.344 37.034a.953.953 0 0 0-.244.562c-.024.328.08.653.29.905.25.32.606.54 1.004.618l-.329.545a1.985 1.985 0 0 1-1.214-.782 2.09 2.09 0 0 1-.468-1.472 1.718 1.718 0 0 1 .725-1.269 1.856 1.856 0 0 1 1.37-.423 1.886 1.886 0 0 1 1.564 2.077 1.814 1.814 0 0 1-.73 1.18 2.239 2.239 0 0 1-.332.207l-1.636-2.148zm.49-.394 1.184 1.574a.965.965 0 0 0 .329-.614.936.936 0 0 0-.194-.731.92.92 0 0 0-.679-.385 1.085 1.085 0 0 0-.64.165v-.009zM67.126 40.409l-1.542.892-.397-.698 3.06-1.759.384.672-.421.233c.193.002.382.056.548.157.176.1.322.245.421.422a1.274 1.274 0 0 1 .13 1.083 1.664 1.664 0 0 1-.8.897L66.73 43.33l-.421-.697 1.644-.91c.27-.125.494-.33.644-.588a.64.64 0 0 0-.046-.63.679.679 0 0 0-.303-.266.878.878 0 0 0-.447-.076 1.74 1.74 0 0 0-.675.245zM71.746 43.082l-1.041.47.316.697-.586.262-.312-.697-1.644.736c-.156.067-.248.156-.27.253a.56.56 0 0 0 .055.356l.123.275-.586.262-.198-.423a1.15 1.15 0 0 1-.106-.846 1.014 1.014 0 0 1 .582-.55l1.711-.766-.244-.553.586-.267.244.558 1.041-.47.329.703zM68.032 46.33l3.314-1.222.278.761-3.31 1.222-.281-.761zm4.662-.749a.486.486 0 0 1-.649-.287.476.476 0 0 1 0-.393.488.488 0 0 1 .278-.263.512.512 0 0 1 .642.697.515.515 0 0 1-.288.268l.017-.022zM68.98 49.557a1.806 1.806 0 0 1 .178-1.417 1.857 1.857 0 0 1 1.125-.864 1.846 1.846 0 0 1 1.404.188 1.911 1.911 0 0 1 .674 2.563 1.863 1.863 0 0 1-2.529.676 1.822 1.822 0 0 1-.851-1.146zm.642-.17a1 1 0 0 0 .514.64c.278.145.602.176.902.084.305-.071.57-.258.742-.52a.988.988 0 0 0 .135-.816.97.97 0 0 0-.519-.635 1.298 1.298 0 0 0-1.644.423.996.996 0 0 0-.13.825zM71.497 52.48l-1.757.245-.11-.795 3.494-.478.11.761-.464.064c.18.071.337.193.451.35.127.16.208.352.232.555a1.273 1.273 0 0 1-.282 1.053 1.684 1.684 0 0 1-1.08.533l-2.027.279-.11-.795 1.83-.254c.29-.02.567-.123.8-.296a.648.648 0 0 0 .19-.6.677.677 0 0 0-.18-.364.842.842 0 0 0-.393-.237 1.68 1.68 0 0 0-.704-.021zM74.92 60.583l-5.008 1.409.051-.846 1.471-.423.118-1.886-1.408-.588.055-.846 4.793 2.03-.072 1.15zm-2.698-1.446-.088 1.421 2.107-.575-2.019-.846zM68.176 63.463a2.37 2.37 0 0 1 .678-1.268l.578.36a1.917 1.917 0 0 0-.611 1.056 1.138 1.138 0 0 0 .13.889.933.933 0 0 0 .603.423l.21.042a1.381 1.381 0 0 1-.303-1.197 1.594 1.594 0 0 1 .793-1.12 1.993 1.993 0 0 1 2.529.515 1.6 1.6 0 0 1 .29 1.34 1.424 1.424 0 0 1-.712.965l.422.085-.16.786-2.87-.583a2.045 2.045 0 0 1-1.375-.795 1.918 1.918 0 0 1-.202-1.498zm2.655 1.692c.152.045.307.076.464.093.247.028.497-.029.708-.16a.922.922 0 0 0 .422-.626.884.884 0 0 0-.19-.791 1.474 1.474 0 0 0-1.686-.339.89.89 0 0 0-.48.652.938.938 0 0 0 .151.748c.15.2.362.344.603.41l.008.013zM70.081 67.465a.974.974 0 0 0-.603.114 1.267 1.267 0 0 0-.581.748c-.125.389-.106.81.054 1.184l-.64.03a2.011 2.011 0 0 1-.03-1.446c.15-.513.491-.948.953-1.214a1.712 1.712 0 0 1 1.441-.097 1.853 1.853 0 0 1 1.105.905 1.889 1.889 0 0 1-.843 2.461 1.777 1.777 0 0 1-1.383.06 2.187 2.187 0 0 1-.358-.161l.885-2.585zm.599.19-.637 1.865a.954.954 0 0 0 .691-.072.986.986 0 0 0 .534-.975.991.991 0 0 0-.112-.374 1.097 1.097 0 0 0-.477-.444zM68.85 71.669l-1.593-.762.354-.719 3.166 1.557-.338.693-.421-.207a1.148 1.148 0 0 1 .063 1.138 1.269 1.269 0 0 1-.843.71 1.68 1.68 0 0 1-1.189-.16l-1.842-.905.355-.724 1.656.817c.256.148.548.218.843.203a.64.64 0 0 0 .493-.39.716.716 0 0 0 .05-.422.847.847 0 0 0-.189-.423 1.743 1.743 0 0 0-.565-.406zM67.417 74.481a1.749 1.749 0 0 1 .784 1.197c.092.532-.03 1.08-.337 1.523-.261.39-.639.686-1.08.846l-.383-.563c.367-.11.686-.338.907-.651a1.196 1.196 0 0 0 .193-.93 1.169 1.169 0 0 0-.526-.75 1.131 1.131 0 0 0-.89-.173 1.19 1.19 0 0 0-.767.55 1.77 1.77 0 0 0-.236 1.108l-.666-.127a2.12 2.12 0 0 1 .346-1.345 2.038 2.038 0 0 1 1.264-.922 1.723 1.723 0 0 1 1.391.237zM63.202 77.674l3.49 1.104-.527.639-2.47-.804 1.265 2.28-.527.635-2.53-4.653.528-.634.771 1.433zM21.988 84.62l5.032-1.3 1.391.935-5.378 1.375.73 5.579-1.43-.965-.666-5.126-2.158 3.227-1.155-.778 4.637-6.936 1.155.778-2.158 3.21zM35.834 90.43a4.04 4.04 0 0 1-1.8 2.656 4.165 4.165 0 0 1-3.275.487l-2.698-.596 1.796-8.155 2.698.596a4.208 4.208 0 0 1 2.765 1.823 4.062 4.062 0 0 1 .514 3.19zm-1.378-.304a2.933 2.933 0 0 0-.338-2.335 3.112 3.112 0 0 0-2.031-1.269l-1.134-.25-1.294 5.88 1.134.254a3.1 3.1 0 0 0 2.381-.3 2.913 2.913 0 0 0 1.282-1.98zM44.327 92.76a3.79 3.79 0 0 0 2.196-1.268l.746.9a4.257 4.257 0 0 1-2.727 1.523 4.298 4.298 0 0 1-3.747-1.268 4.329 4.329 0 0 1-1.14-3.8 4.333 4.333 0 0 1 2.424-3.134 4.299 4.299 0 0 1 3.951.167l-.37 1.104a3.67 3.67 0 0 0-2.462-.423 2.727 2.727 0 0 0-1.846 1.264 3.227 3.227 0 0 0-.422 2.385c.134.829.588 1.57 1.264 2.065a2.739 2.739 0 0 0 2.133.486zM51.143 82.018l6.913 5.498-1.197.762-2.024-1.616-2.676 1.704.594 2.538-1.205.766-2.003-8.616 1.598-1.036zm.708 5.151 2.032-1.268L51 83.579l.851 3.59zM61.128 82.187a.822.822 0 0 1-.502.761.815.815 0 0 1-1.117-.595.823.823 0 0 1 .802-.982.816.816 0 0 1 .817.816z"/>
    </g>
    <defs>
        <clipPath id="b">
            <path fill="#fff" transform="translate(2 21)" d="M0 0h73v73H0z"/>
        </clipPath>
        <filter id="a" x="0" y="0" width="79.321" height="116" filterUnits="userSpaceOnUse" color-interpolation-filters="sRGB">
            <feFlood flood-opacity="0" result="BackgroundImageFix"/>
            <feColorMatrix in="SourceAlpha" values="0 0 0 0 0 0 0 0 0 0 0 0 0 0 0 0 0 0 127 0" result="hardAlpha"/>
            <feOffset dx="2" dy="2"/>
            <feGaussianBlur stdDeviation="2"/>
            <feComposite in2="hardAlpha" operator="out"/>
            <feColorMatrix values="0 0 0 0 0 0 0 0 0 0 0 0 0 0 0 0 0 0 0.2 0"/>
            <feBlend in2="BackgroundImageFix" result="effect1_dropShadow_34:2133"/>
            <feBlend in="SourceGraphic" in2="effect1_dropShadow_34:2133" result="shape"/>
        </filter>
    </defs>
</svg>
