<svg width="43" height="54" viewBox="0 0 43 54" fill="none" xmlns="http://www.w3.org/2000/svg">
    <path d="M7.446 39.589c.84 0 1.6.158 2.282.476.681.317 1.223.76 1.624 1.33.41.56.635 1.199.672 1.918H9.392c-.075-.504-.294-.896-.658-1.176-.364-.28-.85-.42-1.456-.42-.579 0-1.031.107-1.358.322-.327.205-.49.485-.49.84 0 .28.103.508.308.686.205.177.518.336.938.476.43.13 1.05.28 1.862.448 1.26.261 2.16.695 2.702 1.302.55.597.826 1.348.826 2.254 0 .709-.205 1.33-.616 1.862-.401.532-.952.938-1.652 1.218-.7.289-1.48.434-2.338.434-.933 0-1.773-.164-2.52-.49-.737-.318-1.325-.775-1.764-1.372-.43-.598-.663-1.298-.7-2.1h2.618c.075.55.336.994.784 1.33.457.326 1.045.49 1.764.49.523 0 .952-.117 1.288-.35.345-.234.518-.537.518-.91 0-.299-.093-.546-.28-.742-.177-.196-.467-.364-.868-.504-.392-.14-.943-.276-1.652-.406-1.279-.243-2.235-.649-2.87-1.218-.635-.57-.952-1.372-.952-2.408 0-.672.2-1.256.602-1.75.41-.495.966-.873 1.666-1.134.7-.271 1.484-.406 2.352-.406zm9.897 11.886c-.822 0-1.559-.187-2.212-.56a3.897 3.897 0 0 1-1.512-1.526c-.364-.654-.546-1.391-.546-2.212 0-.822.182-1.559.546-2.212a3.896 3.896 0 0 1 1.512-1.526c.653-.374 1.39-.56 2.212-.56.821 0 1.554.186 2.198.56a3.87 3.87 0 0 1 1.526 1.526c.364.653.546 1.39.546 2.212 0 .27-.019.536-.056.798H15.55c.093.476.298.844.616 1.106.317.261.709.392 1.176.392.354 0 .667-.056.938-.168.28-.122.471-.28.574-.476h2.506c-.14.522-.402.98-.784 1.372a3.95 3.95 0 0 1-1.414.938 4.856 4.856 0 0 1-1.82.336zm1.834-5.11c-.103-.495-.313-.868-.63-1.12-.318-.262-.719-.392-1.204-.392-.486 0-.882.13-1.19.392-.308.252-.514.625-.616 1.12h3.64zm6.392 4.914h-2.492v-11.76h2.492v11.76zm5.439.196c-.775 0-1.465-.187-2.072-.56a3.724 3.724 0 0 1-1.414-1.526c-.336-.654-.504-1.391-.504-2.212 0-.822.168-1.559.504-2.212a3.724 3.724 0 0 1 1.414-1.526c.607-.374 1.297-.56 2.072-.56 1.055 0 1.839.345 2.352 1.036v-4.396h2.492v11.76H33.36v-.84c-.513.69-1.297 1.036-2.352 1.036zm.392-2.128c.607 0 1.092-.201 1.456-.602.364-.411.546-.934.546-1.568 0-.635-.182-1.153-.546-1.554-.364-.411-.85-.616-1.456-.616-.588 0-1.06.205-1.414.616-.355.401-.532.919-.532 1.554 0 .634.177 1.157.532 1.568.355.401.826.602 1.414.602zm7.579-10.234c.439 0 .803.144 1.092.434.29.289.434.653.434 1.092 0 .438-.145.802-.434 1.092-.29.289-.653.434-1.092.434-.439 0-.803-.145-1.092-.434-.29-.29-.434-.654-.434-1.092 0-.439.145-.803.434-1.092.29-.29.653-.434 1.092-.434zm1.246 12.194h-2.492v-8.232h2.492v8.232z" fill="#5581F1"/>
    <g filter="url(#a)">
        <rect width="11.324" height="35.028" rx="4" transform="matrix(.70128 .71289 -.70128 .71289 34.054 0)" fill="#5581F1"/>
    </g>
    <g filter="url(#b)">
        <path fill-rule="evenodd" clip-rule="evenodd" d="m8.13 22.935-4.953-5.03a4.074 4.074 0 0 1 0-5.699l2.167-2.2a3.927 3.927 0 0 1 5.614 0l9.791 9.942a4.074 4.074 0 0 1 0 5.7l-.422.428-6.242-6.338a1.964 1.964 0 0 0-2.807 0L8.13 22.935z" fill="#9AB5FB"/>
    </g>
    <defs>
        <filter id="a" x="9.133" y="1.67" width="33.219" height="33.703" filterUnits="userSpaceOnUse" color-interpolation-filters="sRGB">
            <feFlood flood-opacity="0" result="BackgroundImageFix"/>
            <feColorMatrix in="SourceAlpha" values="0 0 0 0 0 0 0 0 0 0 0 0 0 0 0 0 0 0 127 0" result="hardAlpha"/>
            <feOffset dy="2"/>
            <feGaussianBlur stdDeviation="1"/>
            <feComposite in2="hardAlpha" operator="out"/>
            <feColorMatrix values="0 0 0 0 0 0 0 0 0 0 0 0 0 0 0 0 0 0 0.25 0"/>
            <feBlend in2="BackgroundImageFix" result="effect1_dropShadow_103_1755"/>
            <feBlend in="SourceGraphic" in2="effect1_dropShadow_103_1755" result="shape"/>
        </filter>
        <filter id="b" x=".014" y="8.825" width="23.898" height="21.251" filterUnits="userSpaceOnUse" color-interpolation-filters="sRGB">
            <feFlood flood-opacity="0" result="BackgroundImageFix"/>
            <feColorMatrix in="SourceAlpha" values="0 0 0 0 0 0 0 0 0 0 0 0 0 0 0 0 0 0 127 0" result="hardAlpha"/>
            <feOffset dy="2"/>
            <feGaussianBlur stdDeviation="1"/>
            <feComposite in2="hardAlpha" operator="out"/>
            <feColorMatrix values="0 0 0 0 0 0 0 0 0 0 0 0 0 0 0 0 0 0 0.25 0"/>
            <feBlend in2="BackgroundImageFix" result="effect1_dropShadow_103_1755"/>
            <feBlend in="SourceGraphic" in2="effect1_dropShadow_103_1755" result="shape"/>
        </filter>
    </defs>
</svg>
