<svg width="24" height="24" viewBox="0 0 24 24" fill="none" xmlns="http://www.w3.org/2000/svg">
    <path d="m12.398 17.804.23.444-.23-.444zm-.796 0-.23.444.23-.444zM18.5 9c0 2.327-1.186 4.216-2.6 5.643-1.414 1.425-3.013 2.344-3.732 2.717l.46.888c.764-.396 2.466-1.372 3.982-2.901 1.516-1.53 2.89-3.658 2.89-6.347h-1zM12 2.5A6.5 6.5 0 0 1 18.5 9h1A7.5 7.5 0 0 0 12 1.5v1zM5.5 9A6.5 6.5 0 0 1 12 2.5v-1A7.5 7.5 0 0 0 4.5 9h1zm6.332 8.36c-.719-.373-2.318-1.292-3.732-2.717C6.686 13.216 5.5 11.327 5.5 9h-1c0 2.69 1.374 4.817 2.89 6.347 1.516 1.53 3.218 2.505 3.982 2.9l.46-.887zm.336 0a.355.355 0 0 1-.336 0l-.46.888c.397.206.859.206 1.256 0l-.46-.888zM14.5 9a2.5 2.5 0 0 1-2.5 2.5v1A3.5 3.5 0 0 0 15.5 9h-1zM12 6.5A2.5 2.5 0 0 1 14.5 9h1A3.5 3.5 0 0 0 12 5.5v1zM9.5 9A2.5 2.5 0 0 1 12 6.5v-1A3.5 3.5 0 0 0 8.5 9h1zm2.5 2.5A2.5 2.5 0 0 1 9.5 9h-1a3.5 3.5 0 0 0 3.5 3.5v-1z" fill="#222"/>
    <path d="M19.794 17.5c.79.456 1.206.973 1.206 1.5s-.416 1.044-1.206 1.5c-.79.456-1.926.835-3.294 1.098-1.368.263-2.92.402-4.5.402s-3.132-.139-4.5-.402c-1.368-.263-2.504-.642-3.294-1.098C3.416 20.044 3 19.527 3 19s.416-1.044 1.206-1.5" stroke="#222" stroke-linecap="round"/>
</svg>
